# xmcd
#
# Track frame offsets:
#	150
#	19955
#	31890
#	49690
#	64155
#	76840
#	90870
#	105260
#	118840
#	135112
#	149365
#	164857
#	179150
#	195142
#
# Disc length: 2803
#
# Revision: 1
# Processed by: cddbd v1.5.1PL0 Copyright (c) Steve Scherf et al.
# Submitted via: VisiTrax 2.9.3.171 - For more info visit www.synapsa.com
# Normalized: r0:DSETVAR1
#
DISCID=b10af10e
DTITLE=Various Artist - Mr Music 7-99
DYEAR=1900
DGENRE=
TTITLE0=David Allan Coe - Song For The Year 2000
TTITLE1=Rick Trevino - Salte De Espalda
TTITLE2=Patty Loveless - Where I'm Bound
TTITLE3=Montgomery Gentry - I've Loved a Lot More Than I've Hurt
TTITLE4=Inger Nordström - Ding-Dong
TTITLE5=Billy Troy with The Josh Graves Family - Someone's Child
TTITLE6=Riders In The Sky - I Always Do
TTITLE7=Roger Cooper - Sittin' At The Kitchen Table
TTITLE8=Charlie Robison - Barlight
TTITLE9=Bruce Robison with Kelly Willis - When I Loved You
TTITLE10=Deryl Dodd - 30 - 30
TTITLE11=Lisa Brokop - When You Get To Be You
TTITLE12=Joe Diffie - Don't Our Love Look Natural
TTITLE13=Dixie Chicks - Stand By Your Man
EXTD=
EXTT0=
EXTT1=
EXTT2=
EXTT3=
EXTT4=
EXTT5=
EXTT6=
EXTT7=
EXTT8=
EXTT9=
EXTT10=
EXTT11=
EXTT12=
EXTT13=
PLAYORDER=
